<svg width="85" height="21" viewBox="0 0 85 21" fill="none" xmlns="http://www.w3.org/2000/svg">
<path d="M41.4598 7.23513C41.3557 6.21039 40.9634 5.30172 40.1989 4.57719C39.3983 3.81263 38.4176 3.47239 37.3408 3.41634C35.5074 3.31627 31.1603 3.25222 29.6312 3.50441C27.8859 3.78862 26.741 4.80536 26.2607 6.53062C25.8884 7.85559 25.9645 13.9681 26.1806 15.281C26.4769 17.0743 27.5336 18.2232 29.3109 18.6795C30.5398 18.9957 36.5802 18.9557 37.9372 18.7355C39.7305 18.4473 40.8834 17.3906 41.3517 15.6173C41.708 14.2563 41.5839 8.46403 41.4598 7.23513ZM40.0227 15.0208C39.8146 16.3818 38.9099 17.2264 37.5409 17.3745C36.284 17.5106 30.6679 17.5867 29.5031 17.2625C28.3862 16.9502 27.7498 16.1857 27.5656 15.0609C27.3895 13.9881 27.3455 8.62815 27.5656 7.1951C27.7698 5.84612 28.6745 5.0015 30.0354 4.84939C31.4165 4.69328 36.3841 4.67727 37.7051 4.88141C39.062 5.08957 39.9067 5.99423 40.0548 7.36723C40.1949 8.64416 40.2349 13.6438 40.0227 15.0208ZM33.7942 7.12305C31.5886 7.12305 29.7953 8.90836 29.7953 11.118C29.7953 13.3236 31.5806 15.1169 33.7902 15.1169C35.9958 15.1169 37.7891 13.3316 37.7891 11.122C37.7891 8.91636 36.0038 7.12305 33.7942 7.12305ZM33.7662 13.6999C32.3371 13.6878 31.1923 12.519 31.2043 11.094C31.2163 9.66491 32.3852 8.52007 33.8102 8.53208C35.2393 8.54409 36.3841 9.71294 36.3721 11.138C36.3601 12.567 35.1912 13.7119 33.7662 13.6999ZM38.8819 6.97094C38.8819 7.48732 38.4616 7.90362 37.9452 7.90362C37.4288 7.90362 37.0125 7.48331 37.0125 6.96694C37.0125 6.45056 37.4329 6.03426 37.9492 6.03426C38.4656 6.03426 38.8819 6.45456 38.8819 6.97094Z" fill="white"/>
<path fill-rule="evenodd" clip-rule="evenodd" d="M57.9495 6.05807C58.4214 6.04285 58.8971 6.05807 59.3729 6.05427H59.567V3.58802C59.312 3.56138 59.0494 3.52712 58.783 3.5119C58.2958 3.48906 57.8125 3.46623 57.3253 3.47765C56.5831 3.49287 55.879 3.67556 55.2663 4.11324C54.5622 4.61943 54.1778 5.33114 54.0294 6.16845C53.9685 6.51479 53.9532 6.87255 53.9418 7.2265C53.9266 7.77836 53.9418 8.33022 53.9418 8.88589V9.09141H51.5859V11.8431H53.9304V18.7623H56.7963V11.8545H59.1331C59.2549 10.9411 59.3691 10.0353 59.4909 9.09141C59.3044 9.09141 59.1331 9.09141 58.9657 9.09141C58.3034 9.09141 56.7772 9.09141 56.7772 9.09141C56.7772 9.09141 56.7849 7.72888 56.8001 7.13516C56.8229 6.32449 57.3025 6.0771 57.9533 6.05427L57.9495 6.05807Z" fill="white"/>
<path d="M3.45254 7.9279H6.6373V18.1521H3.45254V7.9279ZM5.04492 2.8479C6.06367 2.8479 6.88969 3.67392 6.88969 4.68808C6.88969 5.70225 6.06367 6.53285 5.04492 6.53285C4.02617 6.53285 3.20015 5.70684 3.20015 4.68808C3.20015 3.66933 4.02617 2.8479 5.04492 2.8479Z" fill="white"/>
<path d="M8.88765 7.92793H11.9347V9.32757H11.976C12.4028 8.5245 13.4399 7.67554 14.9864 7.67554C18.2033 7.67554 18.7998 9.79106 18.7998 12.5444V18.1522H15.6243V13.1823C15.6243 11.9938 15.6013 10.4702 13.9722 10.4702C12.3432 10.4702 12.0632 11.7597 12.0632 13.0951V18.1522H8.88765V7.92793Z" fill="white"/>
<path fill-rule="evenodd" clip-rule="evenodd" d="M69.8588 16.6807C69.2209 16.4742 68.7942 16.0566 68.5647 15.4233C68.0049 13.8815 67.8397 7.43393 68.9181 6.16279C69.2852 5.72683 69.7624 5.47444 70.3269 5.41478C73.2363 5.10273 82.2215 5.14862 83.2586 5.52033C83.8644 5.73601 84.2957 6.13525 84.5298 6.74559C85.1447 8.33796 85.1631 14.1338 84.4472 15.6712C84.2544 16.0888 83.9378 16.3824 83.534 16.5935C82.451 17.1626 71.2814 17.1534 69.8542 16.6853L69.8588 16.6807ZM74.4799 13.6612C76.2283 12.7526 77.963 11.8531 79.7159 10.9445C77.9584 10.0267 76.2237 9.12268 74.4799 8.20947V13.6566V13.6612Z" fill="white"/>
</svg>
